<?xml version="1.0" standalone="no"?>
<!DOCTYPE svg PUBLIC "-//W3C//DTD SVG 20010904//EN"
 "http://www.w3.org/TR/2001/REC-SVG-20010904/DTD/svg10.dtd">
<svg version="1.0" xmlns="http://www.w3.org/2000/svg"
 width="135.000000pt" height="135.000000pt" viewBox="0 0 135.000000 135.000000"
 preserveAspectRatio="xMidYMid meet">
<metadata>
Created by potrace 1.14, written by Peter Selinger 2001-2017
</metadata>
<g transform="translate(0.000000,135.000000) scale(0.100000,-0.100000)"
fill="#000000" stroke="none">
<path d="M371 1323 c-35 -35 -40 -76 -17 -122 14 -26 13 -29 -10 -54 -30 -33
-38 -34 -30 -4 7 29 -10 91 -29 107 -11 9 -17 4 -33 -27 -11 -21 -21 -41 -21
-46 -3 -11 41 -87 51 -87 10 0 -11 -50 -29 -70 -12 -13 -13 -13 -8 2 9 24 -43
118 -66 118 -4 0 -11 -17 -16 -37 -8 -31 -6 -45 10 -74 11 -21 30 -42 43 -47
20 -10 22 -15 14 -43 -12 -41 -17 -45 -25 -20 -6 21 -69 81 -85 81 -6 0 -10
-17 -10 -39 0 -47 28 -85 73 -100 29 -10 32 -15 32 -52 l0 -41 -20 25 c-20 24
-74 57 -95 57 -15 0 -12 -36 5 -69 14 -28 48 -47 93 -53 18 -2 28 -13 37 -40
7 -21 9 -38 4 -38 -5 0 -9 4 -9 9 0 14 -65 41 -99 41 -36 0 -37 -3 -11 -45 25
-40 61 -57 109 -49 35 6 39 4 59 -29 l20 -35 -33 14 c-31 12 -100 12 -113 0
-9 -9 7 -35 30 -50 34 -22 72 -26 103 -10 35 18 34 18 69 -11 l30 -24 -41 1
c-42 0 -116 -28 -108 -42 3 -4 20 -15 39 -24 42 -20 87 -12 116 19 l22 23 36
-21 37 -22 -29 -3 c-31 -4 -74 -27 -93 -52 -9 -12 -8 -17 4 -23 44 -26 105 -9
140 38 16 23 22 25 58 17 l40 -8 -39 -19 c-32 -15 -76 -65 -76 -86 0 -10 77
-1 99 10 11 6 27 29 37 51 25 55 58 56 80 1 8 -21 25 -43 37 -50 29 -15 89
-19 94 -5 6 17 -35 63 -75 84 -21 10 -30 19 -21 20 9 0 30 3 46 6 24 5 31 1
42 -20 21 -39 69 -58 115 -45 21 6 36 15 33 22 -6 19 -68 57 -93 57 -32 0 -30
12 5 32 26 14 31 15 42 2 21 -25 67 -45 95 -40 25 5 74 32 74 41 0 13 -70 38
-105 37 l-40 -2 27 26 c26 26 27 27 65 11 21 -8 51 -13 66 -10 33 7 81 53 68
66 -12 12 -89 15 -119 4 l-23 -9 22 35 c20 29 27 34 45 26 13 -4 35 -6 51 -3
30 5 83 55 83 79 0 22 -48 19 -95 -5 -21 -11 -39 -19 -40 -17 -1 1 2 17 7 35
7 25 14 32 33 32 57 0 96 32 110 93 6 21 4 27 -10 27 -27 0 -92 -40 -103 -64
-9 -18 -11 -15 -11 22 -1 32 3 44 17 48 44 14 66 31 78 61 15 35 15 83 1 83
-19 0 -68 -43 -84 -73 l-17 -32 -7 25 c-12 43 -10 57 10 63 32 8 61 65 55 107
-3 19 -9 39 -14 43 -13 14 -59 -45 -67 -86 l-8 -38 -18 34 c-18 34 -18 34 7
72 30 44 32 62 9 110 -20 41 -25 43 -41 13 -22 -41 -29 -83 -20 -108 8 -23 7
-23 -23 7 -31 30 -32 34 -19 58 22 42 16 93 -16 126 -15 16 -31 26 -35 22 -15
-16 -17 -78 -4 -110 8 -18 12 -33 9 -33 -17 0 -57 38 -70 66 -11 23 -26 37
-48 42 -39 11 -58 5 -51 -17 4 -14 -8 -16 -105 -16 -95 0 -110 2 -110 16 0 43
-85 18 -103 -30 -6 -16 -24 -37 -40 -46 -29 -18 -30 -18 -22 1 14 31 17 87 7
114 l-9 24 -32 -31z"/>
<path d="M135 154 c-19 -20 -14 -40 9 -36 22 4 20 -11 -3 -32 -16 -15 -17 -22
-8 -47 6 -16 16 -29 22 -29 14 0 34 47 24 57 -4 4 -4 15 1 23 8 13 10 13 10
-2 0 -9 11 -34 25 -55 24 -34 26 -36 32 -15 3 12 11 22 18 22 30 0 34 77 6
108 -19 23 -41 29 -41 12 0 -5 -7 -10 -15 -10 -8 0 -15 -7 -15 -16 0 -13 -6
-11 -24 9 -23 25 -26 25 -41 11z m126 -81 c-12 -20 -14 -14 -5 12 4 9 9 14 11
11 3 -2 0 -13 -6 -23z"/>
<path d="M349 160 c-7 -5 -17 -6 -21 -4 -4 3 -8 -4 -8 -16 0 -12 5 -18 10 -15
6 3 10 -1 10 -9 0 -9 -6 -16 -13 -16 -22 0 -14 -72 10 -87 30 -20 87 -4 91 25
3 16 -4 23 -30 31 l-33 9 33 1 c28 1 33 -3 39 -29 6 -33 17 -45 32 -35 6 3 6
17 1 35 -5 18 -5 30 1 30 5 0 9 9 9 20 0 11 -3 19 -7 19 -20 -3 -24 2 -13 16
7 9 10 18 7 21 -10 10 -103 13 -118 4z m76 -40 c4 -6 -7 -10 -25 -10 -18 0
-29 4 -25 10 3 6 15 10 25 10 10 0 22 -4 25 -10z m-30 -81 c4 -5 -5 -9 -19 -9
-14 0 -26 4 -26 8 0 11 39 12 45 1z"/>
<path d="M560 161 c0 -6 -11 -11 -24 -11 -14 0 -27 -3 -29 -7 -6 -11 7 -54 16
-54 4 1 17 1 30 0 20 -1 19 -2 -6 -11 -30 -11 -27 -27 6 -29 20 -1 19 -2 -5
-12 -51 -20 -33 -34 38 -31 36 2 69 6 74 9 5 3 3 20 -5 38 -10 24 -19 32 -37
30 -14 -1 -17 0 -5 3 9 3 17 12 17 21 0 12 -9 14 -39 11 -22 -2 -37 0 -35 4 3
5 23 8 45 8 28 0 39 -4 39 -15 0 -8 7 -15 15 -15 15 0 22 45 8 53 -20 11 -103
17 -103 8z m55 -111 c3 -5 1 -10 -4 -10 -6 0 -11 5 -11 10 0 6 2 10 4 10 3 0
8 -4 11 -10z"/>
<path d="M777 164 c-3 -3 -22 -6 -42 -6 l-36 0 2 -53 c2 -42 6 -55 21 -58 11
-3 16 -11 12 -20 -8 -21 11 -30 26 -12 8 10 18 11 36 4 55 -20 63 4 9 27 -32
13 -34 16 -23 39 9 19 9 28 0 37 -9 9 -15 2 -27 -25 -8 -20 -17 -37 -18 -37
-2 0 -4 17 -5 38 -2 36 -1 37 35 39 44 2 54 -9 42 -49 -6 -22 -4 -30 7 -35 20
-7 21 -5 28 44 4 31 1 46 -10 58 -16 15 -46 20 -57 9z"/>
<path d="M894 161 c-12 -12 -2 -29 16 -26 11 2 20 0 20 -6 0 -5 -7 -9 -15 -9
-8 0 -15 -1 -15 -3 0 -1 -4 -17 -9 -34 -14 -50 12 -76 74 -75 54 0 78 17 78
56 0 27 -30 69 -42 61 -4 -2 -13 0 -21 6 -11 6 -4 9 23 9 26 0 37 4 37 15 0
13 -13 15 -71 13 -39 -2 -73 -5 -75 -7z m104 -73 c32 -32 -9 -68 -59 -53 -25
8 -25 25 1 18 14 -4 20 0 20 11 0 9 -7 16 -15 16 -8 0 -15 5 -15 10 0 14 54
12 68 -2z"/>
<path d="M1093 163 c-26 -5 -29 -13 -11 -31 9 -9 9 -12 0 -12 -7 0 -12 -9 -12
-21 0 -11 5 -17 10 -14 6 3 10 2 10 -4 0 -5 -4 -13 -10 -16 -15 -10 -12 -35 5
-35 8 0 15 -4 15 -10 0 -5 7 -10 15 -10 8 0 15 9 15 19 0 11 5 23 10 26 6 3
10 1 10 -4 0 -6 9 -11 20 -11 11 0 20 -7 20 -15 0 -8 7 -15 15 -15 8 0 15 9
15 20 0 11 5 20 10 20 6 0 10 7 10 16 0 8 -5 12 -11 8 -7 -4 -9 9 -5 45 4 41
2 51 -9 51 -8 0 -15 -8 -16 -17 0 -11 -3 -13 -6 -5 -6 14 -29 16 -38 2 -3 -6
5 -14 19 -20 30 -11 36 -24 7 -15 -23 7 -39 -14 -20 -26 8 -5 17 -3 21 4 5 8
8 6 8 -5 0 -12 -8 -18 -22 -18 -24 0 -63 20 -40 20 6 0 12 6 12 14 0 8 -6 17
-12 19 -10 4 -10 8 1 15 13 9 7 34 -7 31 -4 -1 -17 -4 -29 -6z"/>
</g>
</svg>
